# xmcd
#
# Track frame offsets: 
#        150
#        20135
#        37857
#        59381
#        87319
#        107536
#        123400
#        143755
#        160878
#        186031
#        207043
#        239171
#
# Disc length: 3255 seconds
#
# Revision: 0
# Processed by: cddbd v1.5.2PL0 Copyright (c) Steve Scherf et al.
# Submitted via: ExactAudioCopy v0.95b4
#
DISCID=a10cb50c
DTITLE=Kyle Rowland - Messin' with the Kid
DYEAR=2009
DGENRE=Blues
TTITLE0=Eyesight to the Blind
TTITLE1=Messin' with the Kid
TTITLE2=Baby, Please don't go
TTITLE3=She's 19 years old
TTITLE4=I'm a King Bee
TTITLE5=Got to play the blues
TTITLE6=Dream man
TTITLE7=I'm Ready
TTITLE8=(Back at the) Chicken shack
TTITLE9=Got My Mojo Working
TTITLE10=Ridin' in the Moonlight
TTITLE11="train" harmonica solo
EXTD=
EXTT0=
EXTT1=
EXTT2=
EXTT3=
EXTT4=
EXTT5=
EXTT6=
EXTT7=
EXTT8=
EXTT9=
EXTT10=
EXTT11=
PLAYORDER=
